<svg
    width="384"
    height="338"
    viewBox="0 0 384 338"
    fill="none"
    xmlns="http://www.w3.org/2000/svg"
  >
    <path
      d="M375.702 178.465C375.702 176.485 374.624 174.772 373.034 173.836C379.55 167.85 383.595 160.927 383.595 151.046C383.595 121.921 348.091 116.185 348.091 102.788C348.091 116.185 312.587 121.921 312.587 151.046C312.587 160.926 316.631 167.849 323.148 173.835C321.558 174.771 320.48 176.483 320.48 178.465C320.48 181.34 322.733 183.666 325.57 183.82V212.597C322.733 212.75 320.48 215.077 320.48 217.952C320.48 220.828 322.733 223.157 325.57 223.31V238.335H259.013V216.42H251.374V201.331H250.741C264.207 188.218 272.456 172.976 272.456 151.698C272.456 91.637 206.007 75.349 193.737 50.098C195.892 50.634 198.112 50.924 200.351 50.924C208.715 50.924 216.527 47.2 221.783 40.707C223.611 38.444 225.068 35.924 226.112 33.215L226.274 32.794L225.895 33.04C221.474 35.905 216.339 37.42 211.046 37.42C204.837 37.42 198.752 35.263 193.91 31.347C184.712 23.898 181.369 11.47 185.594 0.42L185.755 0L185.377 0.244999C182.947 1.822 180.785 3.771 178.952 6.037C174.321 11.757 172.194 18.937 172.965 26.256C173.735 33.575 177.312 40.156 183.033 44.786C185.246 46.577 187.726 47.984 190.351 49.009C179.502 74.892 111.138 90.778 111.138 151.697C111.138 172.974 119.384 188.217 132.851 201.33H132.218V216.419H124.581V238.334H58.022V223.242C60.862 223.089 63.122 220.761 63.122 217.887C63.122 215.012 60.862 212.684 58.022 212.532V183.753C60.862 183.6 63.122 181.273 63.122 178.398C63.122 176.419 62.04 174.707 60.447 173.772C66.961 167.788 71.008 160.865 71.008 150.984C71.008 121.859 35.5 116.119 35.5 102.721C35.5 116.118 0 121.859 0 150.984C0 160.866 4.047 167.789 10.563 173.772C8.971 174.708 7.891 176.419 7.891 178.398C7.891 181.272 10.149 183.599 12.985 183.753V212.532C10.149 212.686 7.891 215.013 7.891 217.887C7.891 220.76 10.149 223.088 12.985 223.242V238.334H12.954V337.941H57.181V299.539C57.181 283.598 80.021 273.154 80.021 273.154C80.021 273.154 102.859 283.597 102.859 299.539V337.941H159.771V283.119C159.771 260.767 191.798 246.124 191.798 246.124C191.798 246.124 223.823 260.768 223.823 283.119V337.941H280.735V299.539C280.735 283.598 303.573 273.154 303.573 273.154C303.573 273.154 326.413 283.597 326.413 299.539V337.941H370.64V238.335H370.611V223.31C373.447 223.158 375.703 220.829 375.703 217.952C375.703 215.077 373.447 212.749 370.611 212.597V183.821C373.446 183.668 375.702 181.34 375.702 178.465Z"
      fill='#808080'
    />
  </svg>