<svg
    width="384"
    height="512"
    viewBox="0 0 384 512"
    fill="none"
    xmlns="http://www.w3.org/2000/svg"
  >
    <path
      d="M272 32H237.248C230.656 13.376 212.864 0 192 0C171.136 0 153.344 13.376 146.72 32H112C103.168 32 96 39.168 96 48V112C96 120.832 103.168 128 112 128H272C280.832 128 288 120.832 288 112V48C288 39.168 280.832 32 272 32Z"
      fill='#808080'
    />
    <path
      d="M352 64H320V112C320 138.464 298.464 160 272 160H112C85.536 160 64 138.464 64 112V64H32C14.368 64 0 78.368 0 96V480C0 497.952 14.048 512 32 512H352C369.952 512 384 497.952 384 480V96C384 78.048 369.952 64 352 64ZM187.328 347.328L123.328 411.328C120.192 414.432 116.096 416 112 416C107.904 416 103.808 414.432 100.672 411.328L68.672 379.328C62.432 373.088 62.432 362.944 68.672 356.704C74.912 350.464 85.056 350.464 91.296 356.704L112 377.376L164.672 324.704C170.912 318.464 181.056 318.464 187.296 324.704C193.536 330.944 193.568 341.056 187.328 347.328ZM187.328 219.328L123.328 283.328C120.192 286.432 116.096 288 112 288C107.904 288 103.808 286.432 100.672 283.328L68.672 251.328C62.432 245.088 62.432 234.944 68.672 228.704C74.912 222.464 85.056 222.464 91.296 228.704L112 249.376L164.672 196.704C170.912 190.464 181.056 190.464 187.296 196.704C193.536 202.944 193.568 213.056 187.328 219.328ZM304 384H240C231.168 384 224 376.832 224 368C224 359.168 231.168 352 240 352H304C312.832 352 320 359.168 320 368C320 376.832 312.832 384 304 384ZM304 256H240C231.168 256 224 248.832 224 240C224 231.168 231.168 224 240 224H304C312.832 224 320 231.168 320 240C320 248.832 312.832 256 304 256Z"
      fill='#808080'
    />
  </svg>